<svg width="33" height="33" viewBox="0 0 33 33" fill="none" xmlns="http://www.w3.org/2000/svg">
<g filter="url(#filter0_d_11_59)">
<path d="M26.5 3.75H15.25V4.58333H26.5V3.75Z" fill="#B6A57F"/>
<path d="M22.3333 5.41663H15.25V6.24996H22.3333V5.41663Z" fill="#B6A57F"/>
<path d="M22.3333 7.08337H15.25V7.91671H22.3333V7.08337Z" fill="#B6A57F"/>
<path d="M26.5 2.08337H18.5833V2.91671H26.5V2.08337Z" fill="#B6A57F"/>
<path d="M17.75 2.08337H16.9167V2.91671H17.75V2.08337Z" fill="#B6A57F"/>
<path d="M16.9166 16.6666H16.0833V17.5H16.9166V16.6666Z" fill="#B6A57F"/>
<path d="M10.9612 2.79461L10.3721 2.20544L9.53874 3.03878C9.37608 3.20149 9.37608 3.46524 9.53874 3.62794L10.3721 4.46128L10.9612 3.87211L10.4225 3.33336L10.9612 2.79461Z" fill="#B6A57F"/>
<path d="M14.2946 3.03878L13.4612 2.20544L12.8721 2.79461L13.4108 3.33336L12.8721 3.87211L13.4612 4.46128L14.2946 3.62794C14.4572 3.46524 14.4572 3.20149 14.2946 3.03878Z" fill="#B6A57F"/>
<path d="M11.9384 1.95109L11.1042 4.45105L11.8944 4.71467L12.7285 2.21471L11.9384 1.95109Z" fill="#B6A57F"/>
<path d="M25.6667 12.9167V9.58333H24.8334V12.9167H24V8.75H23.1667V12.9167H22.3334V10.8333H21.5V12.9167H20.6667V10.4167H19.8334V12.9167H19V11.25H18.1667V12.9167H17.3334V13.75H26.5V12.9167H25.6667Z" fill="#B6A57F"/>
<path d="M26.0834 0H6.91669C5.53653 0.00135417 4.41804 1.11984 4.41669 2.5V10.6775V10.6812V15.4167V16.6667C4.41804 18.0468 5.53653 19.1653 6.91669 19.1667H12.0759L10.4092 22.5H8.16669C7.47632 22.5 6.91669 23.0596 6.91669 23.75C6.91669 24.4404 7.47632 25 8.16669 25H24.8334C25.5237 25 26.0834 24.4404 26.0834 23.75C26.0834 23.0596 25.5237 22.5 24.8334 22.5H22.5909L20.9242 19.1667H26.0834C27.4635 19.1653 28.582 18.0468 28.5834 16.6667V2.5C28.582 1.11984 27.4635 0.00135417 26.0834 0ZM5.25002 5.8625L6.1971 6.99C6.27627 7.08432 6.39315 7.13875 6.51627 7.13875H7.79169C7.91481 7.13875 8.03169 7.08432 8.11085 6.99L9.05835 5.8625L9.99335 6.16625L10.0967 7.63417C10.1052 7.75693 10.1676 7.86964 10.2671 7.94208L11.2992 8.69208C11.399 8.76417 11.5255 8.7887 11.645 8.75917L13.0754 8.40375L13.6538 9.19917L12.8742 10.4492C12.8096 10.554 12.7947 10.6819 12.8334 10.7987L13.2279 12.0117C13.2659 12.1286 13.3536 12.2229 13.4675 12.2692L14.8334 12.8229V13.8062L13.4667 14.36C13.3525 14.406 13.2647 14.5006 13.2271 14.6179L13.1021 15H10.7017C11.6354 13.045 10.8075 10.7032 8.85252 9.76943C7.70424 9.22099 6.36122 9.26359 5.25002 9.88375V5.8625ZM5.25002 10.875C6.59773 9.82359 8.54262 10.0638 9.59398 11.4116C10.4057 12.4521 10.4684 13.8929 9.75002 15H5.25002V10.875ZM24.8334 23.3333C25.0635 23.3333 25.25 23.5199 25.25 23.75C25.25 23.9801 25.0635 24.1667 24.8334 24.1667H8.16669C7.93658 24.1667 7.75002 23.9801 7.75002 23.75C7.75002 23.5199 7.93658 23.3333 8.16669 23.3333H24.8334ZM21.6592 22.5H11.3409L13.0075 19.1667H19.9925L21.6592 22.5ZM27.75 16.6667C27.75 17.5871 27.0038 18.3333 26.0834 18.3333H6.91669C5.99622 18.3333 5.25002 17.5871 5.25002 16.6667V15.8333H9.96752H9.97127H27.75V16.6667ZM27.75 15H14.1063L15.4067 14.4729C15.5638 14.4092 15.6666 14.2566 15.6667 14.0871V12.5417C15.6667 12.372 15.5639 12.2192 15.4067 12.1554L13.9584 11.5696L13.6842 10.7258L14.51 9.40083C14.5996 9.25688 14.593 9.07302 14.4934 8.93583L13.585 7.68583C13.4853 7.54849 13.3123 7.48536 13.1475 7.52625L11.6325 7.90125L10.9167 7.38125L10.8071 5.82708C10.7952 5.65766 10.6816 5.5124 10.52 5.46L9.05127 4.9825C8.88966 4.93104 8.71299 4.98182 8.60335 5.11125L7.60044 6.305H6.71169L5.70835 5.11125C5.59867 4.98167 5.42174 4.93083 5.26002 4.9825L5.25002 4.98625V2.5C5.25002 1.57953 5.99622 0.833333 6.91669 0.833333H26.0834C27.0038 0.833333 27.75 1.57953 27.75 2.5V15Z" fill="#B6A57F"/>
</g>
<defs>
<filter id="filter0_d_11_59" x="0" y="0" width="33" height="33" filterUnits="userSpaceOnUse" color-interpolation-filters="sRGB">
<feFlood flood-opacity="0" result="BackgroundImageFix"/>
<feColorMatrix in="SourceAlpha" type="matrix" values="0 0 0 0 0 0 0 0 0 0 0 0 0 0 0 0 0 0 127 0" result="hardAlpha"/>
<feOffset dy="4"/>
<feGaussianBlur stdDeviation="2"/>
<feComposite in2="hardAlpha" operator="out"/>
<feColorMatrix type="matrix" values="0 0 0 0 0 0 0 0 0 0 0 0 0 0 0 0 0 0 0.25 0"/>
<feBlend mode="normal" in2="BackgroundImageFix" result="effect1_dropShadow_11_59"/>
<feBlend mode="normal" in="SourceGraphic" in2="effect1_dropShadow_11_59" result="shape"/>
</filter>
</defs>
</svg>
