<svg width="25" height="21" viewBox="0 0 25 21" fill="none" xmlns="http://www.w3.org/2000/svg">
<mask id="path-1-inside-1_7_86" fill="white">
<path d="M23.3871 0H1.6129C1.18531 0.000560118 0.775384 0.17067 0.473027 0.473027C0.17067 0.775384 0.000560118 1.18531 0 1.6129V15.3226C0.000560118 15.7502 0.17067 16.1601 0.473027 16.4625C0.775384 16.7648 1.18531 16.9349 1.6129 16.9355H9.92439L9.38659 18.5484H8.06452C7.95757 18.5484 7.85501 18.5909 7.77939 18.6665C7.70377 18.7421 7.66129 18.8447 7.66129 18.9516V19.7581H4.03226C3.92532 19.7581 3.82275 19.8005 3.74713 19.8762C3.67151 19.9518 3.62903 20.0543 3.62903 20.1613C3.62903 20.2682 3.67151 20.3708 3.74713 20.4464C3.82275 20.522 3.92532 20.5645 4.03226 20.5645H21.7742C21.8811 20.5645 21.9837 20.522 22.0593 20.4464C22.1349 20.3708 22.1774 20.2682 22.1774 20.1613C22.1774 20.0543 22.1349 19.9518 22.0593 19.8762C21.9837 19.8005 21.8811 19.7581 21.7742 19.7581H17.3387V18.9516C17.3387 18.8447 17.2962 18.7421 17.2206 18.6665C17.145 18.5909 17.0424 18.5484 16.9355 18.5484H15.6134L15.0756 16.9355H23.3871C23.8147 16.9349 24.2246 16.7648 24.527 16.4625C24.8293 16.1601 24.9994 15.7502 25 15.3226V1.6129C24.9994 1.18531 24.8293 0.775384 24.527 0.473027C24.2246 0.17067 23.8147 0.000560118 23.3871 0ZM16.5323 19.3548V19.7581H8.46774V19.3548H16.5323ZM10.2369 18.5484L10.7747 16.9355H14.2253L14.7631 18.5484H10.2369ZM24.1935 15.3226C24.1933 15.5364 24.1082 15.7413 23.957 15.8925C23.8059 16.0437 23.6009 16.1288 23.3871 16.129H1.6129C1.3991 16.1288 1.19414 16.0437 1.04297 15.8925C0.891787 15.7413 0.806732 15.5364 0.806452 15.3226V14.5161H24.1935V15.3226ZM6.8377 10.0806L6.68649 13.7097H6.21673L6.06552 10.0806H6.8377ZM6.12097 9.27419L6.39012 7.66129H6.5131L6.78226 9.27419H6.12097ZM6.45161 6.85484C6.01462 6.85484 5.64516 6.30091 5.64516 5.64516C5.64516 5.23135 6.06754 4.63004 6.4506 4.20615C6.79587 4.58921 7.25806 5.20161 7.25806 5.64516C7.25806 6.30091 6.88861 6.85484 6.45161 6.85484ZM10.8397 6.04839L10.8871 6.14365V6.45161H9.27419V6.14365L9.32157 6.04839H10.8397ZM9.7248 5.24194L10.0806 4.53075L10.4365 5.24194H9.7248ZM10.8871 7.25806V13.6593C10.8873 13.6761 10.8884 13.693 10.8906 13.7097H9.27067C9.27286 13.693 9.27404 13.6761 9.27419 13.6593V7.25806H10.8871ZM14.5161 5.64516H15.7258V6.45161H15.3226C15.2156 6.45161 15.1131 6.4941 15.0375 6.56971C14.9618 6.64533 14.9194 6.7479 14.9194 6.85484C14.9194 6.96178 14.9618 7.06434 15.0375 7.13996C15.1131 7.21558 15.2156 7.25806 15.3226 7.25806H15.7258V8.06452H14.5161C14.4092 8.06452 14.3066 8.107 14.231 8.18262C14.1554 8.25824 14.1129 8.3608 14.1129 8.46774C14.1129 8.57468 14.1554 8.67725 14.231 8.75287C14.3066 8.82849 14.4092 8.87097 14.5161 8.87097H15.7258V9.67742H15.3226C15.2156 9.67742 15.1131 9.7199 15.0375 9.79552C14.9618 9.87114 14.9194 9.9737 14.9194 10.0806C14.9194 10.1876 14.9618 10.2901 15.0375 10.3658C15.1131 10.4414 15.2156 10.4839 15.3226 10.4839H15.7258V11.2903H14.5161C14.4092 11.2903 14.3066 11.3328 14.231 11.4084C14.1554 11.484 14.1129 11.5866 14.1129 11.6935C14.1129 11.8005 14.1554 11.9031 14.231 11.9787C14.3066 12.0543 14.4092 12.0968 14.5161 12.0968H15.7258V13.7097H12.9032V4.03226H15.7258V4.83871H14.5161C14.4092 4.83871 14.3066 4.88119 14.231 4.95681C14.1554 5.03243 14.1129 5.13499 14.1129 5.24194C14.1129 5.34888 14.1554 5.45144 14.231 5.52706C14.3066 5.60268 14.4092 5.64516 14.5161 5.64516ZM19.3548 10.4839V13.6593C19.355 13.6761 19.3562 13.693 19.3584 13.7097H17.7384C17.7406 13.693 17.7418 13.6761 17.7419 13.6593V10.4839H19.3548ZM17.7419 9.67742V9.36946L18.5484 7.75655L19.3548 9.36946V9.67742H17.7419ZM24.1935 13.7097H20.1578C20.16 13.693 20.1611 13.6761 20.1613 13.6593V9.27419C20.1612 9.21159 20.1467 9.14984 20.119 9.09375L18.9093 6.6744C18.8757 6.60743 18.8242 6.55113 18.7604 6.51178C18.6967 6.47243 18.6233 6.4516 18.5484 6.4516C18.4735 6.4516 18.4001 6.47243 18.3363 6.51178C18.2726 6.55113 18.2211 6.60743 18.1875 6.6744L16.9778 9.09375C16.95 9.14984 16.9355 9.21159 16.9355 9.27419V13.6593C16.9356 13.6761 16.9368 13.693 16.939 13.7097H16.5323V3.62903C16.5323 3.52209 16.4898 3.41953 16.4142 3.34391C16.3385 3.26829 16.236 3.22581 16.129 3.22581H12.5C12.3931 3.22581 12.2905 3.26829 12.2149 3.34391C12.1393 3.41953 12.0968 3.52209 12.0968 3.62903V13.7097H11.69C11.6922 13.693 11.6934 13.6761 11.6935 13.6593V6.04839C11.6935 5.98578 11.679 5.92404 11.6512 5.86794L10.4415 3.44859C10.408 3.38163 10.3564 3.32532 10.2927 3.28598C10.229 3.24663 10.1555 3.22579 10.0806 3.22579C10.0057 3.22579 9.93232 3.24663 9.86858 3.28598C9.80485 3.32532 9.75332 3.38163 9.71976 3.44859L8.51008 5.86794C8.48229 5.92404 8.4678 5.98578 8.46774 6.04839V13.6593C8.4679 13.6761 8.46907 13.693 8.47127 13.7097H7.49345L7.66079 9.69405C7.66129 9.68498 7.66079 9.67591 7.66079 9.66633V9.65423C7.65985 9.64004 7.65817 9.62591 7.65575 9.6119V9.61089L7.28276 7.37248C7.75101 7.01915 8.06452 6.37702 8.06452 5.64516C8.06452 4.60887 6.86341 3.46119 6.72631 3.33367C6.6516 3.26442 6.55349 3.22594 6.45161 3.22594C6.34974 3.22594 6.25163 3.26442 6.17692 3.33367C6.03982 3.46119 4.83871 4.60887 4.83871 5.64516C4.83871 6.37702 5.15222 7.01915 5.62046 7.37248L5.24748 9.61089V9.6119C5.24506 9.62591 5.24337 9.64004 5.24244 9.65423V9.66633C5.24244 9.67591 5.24194 9.68498 5.24244 9.69405L5.40978 13.7097H0.806452V1.6129C0.806732 1.3991 0.891787 1.19414 1.04297 1.04297C1.19414 0.891787 1.3991 0.806732 1.6129 0.806452H23.3871C23.6009 0.806732 23.8059 0.891787 23.957 1.04297C24.1082 1.19414 24.1933 1.3991 24.1935 1.6129V13.7097Z"/>
</mask>
<path d="M23.3871 0H1.6129C1.18531 0.000560118 0.775384 0.17067 0.473027 0.473027C0.17067 0.775384 0.000560118 1.18531 0 1.6129V15.3226C0.000560118 15.7502 0.17067 16.1601 0.473027 16.4625C0.775384 16.7648 1.18531 16.9349 1.6129 16.9355H9.92439L9.38659 18.5484H8.06452C7.95757 18.5484 7.85501 18.5909 7.77939 18.6665C7.70377 18.7421 7.66129 18.8447 7.66129 18.9516V19.7581H4.03226C3.92532 19.7581 3.82275 19.8005 3.74713 19.8762C3.67151 19.9518 3.62903 20.0543 3.62903 20.1613C3.62903 20.2682 3.67151 20.3708 3.74713 20.4464C3.82275 20.522 3.92532 20.5645 4.03226 20.5645H21.7742C21.8811 20.5645 21.9837 20.522 22.0593 20.4464C22.1349 20.3708 22.1774 20.2682 22.1774 20.1613C22.1774 20.0543 22.1349 19.9518 22.0593 19.8762C21.9837 19.8005 21.8811 19.7581 21.7742 19.7581H17.3387V18.9516C17.3387 18.8447 17.2962 18.7421 17.2206 18.6665C17.145 18.5909 17.0424 18.5484 16.9355 18.5484H15.6134L15.0756 16.9355H23.3871C23.8147 16.9349 24.2246 16.7648 24.527 16.4625C24.8293 16.1601 24.9994 15.7502 25 15.3226V1.6129C24.9994 1.18531 24.8293 0.775384 24.527 0.473027C24.2246 0.17067 23.8147 0.000560118 23.3871 0ZM16.5323 19.3548V19.7581H8.46774V19.3548H16.5323ZM10.2369 18.5484L10.7747 16.9355H14.2253L14.7631 18.5484H10.2369ZM24.1935 15.3226C24.1933 15.5364 24.1082 15.7413 23.957 15.8925C23.8059 16.0437 23.6009 16.1288 23.3871 16.129H1.6129C1.3991 16.1288 1.19414 16.0437 1.04297 15.8925C0.891787 15.7413 0.806732 15.5364 0.806452 15.3226V14.5161H24.1935V15.3226ZM6.8377 10.0806L6.68649 13.7097H6.21673L6.06552 10.0806H6.8377ZM6.12097 9.27419L6.39012 7.66129H6.5131L6.78226 9.27419H6.12097ZM6.45161 6.85484C6.01462 6.85484 5.64516 6.30091 5.64516 5.64516C5.64516 5.23135 6.06754 4.63004 6.4506 4.20615C6.79587 4.58921 7.25806 5.20161 7.25806 5.64516C7.25806 6.30091 6.88861 6.85484 6.45161 6.85484ZM10.8397 6.04839L10.8871 6.14365V6.45161H9.27419V6.14365L9.32157 6.04839H10.8397ZM9.7248 5.24194L10.0806 4.53075L10.4365 5.24194H9.7248ZM10.8871 7.25806V13.6593C10.8873 13.6761 10.8884 13.693 10.8906 13.7097H9.27067C9.27286 13.693 9.27404 13.6761 9.27419 13.6593V7.25806H10.8871ZM14.5161 5.64516H15.7258V6.45161H15.3226C15.2156 6.45161 15.1131 6.4941 15.0375 6.56971C14.9618 6.64533 14.9194 6.7479 14.9194 6.85484C14.9194 6.96178 14.9618 7.06434 15.0375 7.13996C15.1131 7.21558 15.2156 7.25806 15.3226 7.25806H15.7258V8.06452H14.5161C14.4092 8.06452 14.3066 8.107 14.231 8.18262C14.1554 8.25824 14.1129 8.3608 14.1129 8.46774C14.1129 8.57468 14.1554 8.67725 14.231 8.75287C14.3066 8.82849 14.4092 8.87097 14.5161 8.87097H15.7258V9.67742H15.3226C15.2156 9.67742 15.1131 9.7199 15.0375 9.79552C14.9618 9.87114 14.9194 9.9737 14.9194 10.0806C14.9194 10.1876 14.9618 10.2901 15.0375 10.3658C15.1131 10.4414 15.2156 10.4839 15.3226 10.4839H15.7258V11.2903H14.5161C14.4092 11.2903 14.3066 11.3328 14.231 11.4084C14.1554 11.484 14.1129 11.5866 14.1129 11.6935C14.1129 11.8005 14.1554 11.9031 14.231 11.9787C14.3066 12.0543 14.4092 12.0968 14.5161 12.0968H15.7258V13.7097H12.9032V4.03226H15.7258V4.83871H14.5161C14.4092 4.83871 14.3066 4.88119 14.231 4.95681C14.1554 5.03243 14.1129 5.13499 14.1129 5.24194C14.1129 5.34888 14.1554 5.45144 14.231 5.52706C14.3066 5.60268 14.4092 5.64516 14.5161 5.64516ZM19.3548 10.4839V13.6593C19.355 13.6761 19.3562 13.693 19.3584 13.7097H17.7384C17.7406 13.693 17.7418 13.6761 17.7419 13.6593V10.4839H19.3548ZM17.7419 9.67742V9.36946L18.5484 7.75655L19.3548 9.36946V9.67742H17.7419ZM24.1935 13.7097H20.1578C20.16 13.693 20.1611 13.6761 20.1613 13.6593V9.27419C20.1612 9.21159 20.1467 9.14984 20.119 9.09375L18.9093 6.6744C18.8757 6.60743 18.8242 6.55113 18.7604 6.51178C18.6967 6.47243 18.6233 6.4516 18.5484 6.4516C18.4735 6.4516 18.4001 6.47243 18.3363 6.51178C18.2726 6.55113 18.2211 6.60743 18.1875 6.6744L16.9778 9.09375C16.95 9.14984 16.9355 9.21159 16.9355 9.27419V13.6593C16.9356 13.6761 16.9368 13.693 16.939 13.7097H16.5323V3.62903C16.5323 3.52209 16.4898 3.41953 16.4142 3.34391C16.3385 3.26829 16.236 3.22581 16.129 3.22581H12.5C12.3931 3.22581 12.2905 3.26829 12.2149 3.34391C12.1393 3.41953 12.0968 3.52209 12.0968 3.62903V13.7097H11.69C11.6922 13.693 11.6934 13.6761 11.6935 13.6593V6.04839C11.6935 5.98578 11.679 5.92404 11.6512 5.86794L10.4415 3.44859C10.408 3.38163 10.3564 3.32532 10.2927 3.28598C10.229 3.24663 10.1555 3.22579 10.0806 3.22579C10.0057 3.22579 9.93232 3.24663 9.86858 3.28598C9.80485 3.32532 9.75332 3.38163 9.71976 3.44859L8.51008 5.86794C8.48229 5.92404 8.4678 5.98578 8.46774 6.04839V13.6593C8.4679 13.6761 8.46907 13.693 8.47127 13.7097H7.49345L7.66079 9.69405C7.66129 9.68498 7.66079 9.67591 7.66079 9.66633V9.65423C7.65985 9.64004 7.65817 9.62591 7.65575 9.6119V9.61089L7.28276 7.37248C7.75101 7.01915 8.06452 6.37702 8.06452 5.64516C8.06452 4.60887 6.86341 3.46119 6.72631 3.33367C6.6516 3.26442 6.55349 3.22594 6.45161 3.22594C6.34974 3.22594 6.25163 3.26442 6.17692 3.33367C6.03982 3.46119 4.83871 4.60887 4.83871 5.64516C4.83871 6.37702 5.15222 7.01915 5.62046 7.37248L5.24748 9.61089V9.6119C5.24506 9.62591 5.24337 9.64004 5.24244 9.65423V9.66633C5.24244 9.67591 5.24194 9.68498 5.24244 9.69405L5.40978 13.7097H0.806452V1.6129C0.806732 1.3991 0.891787 1.19414 1.04297 1.04297C1.19414 0.891787 1.3991 0.806732 1.6129 0.806452H23.3871C23.6009 0.806732 23.8059 0.891787 23.957 1.04297C24.1082 1.19414 24.1933 1.3991 24.1935 1.6129V13.7097Z" fill="#B6A57F" stroke="#B6A57F" stroke-width="2" mask="url(#path-1-inside-1_7_86)"/>
<mask id="path-2-inside-2_7_86" fill="white">
<path d="M4.4355 14.9193H2.01614C1.9092 14.9193 1.80664 14.9618 1.73102 15.0374C1.6554 15.113 1.61292 15.2156 1.61292 15.3225C1.61292 15.4295 1.6554 15.532 1.73102 15.6077C1.80664 15.6833 1.9092 15.7258 2.01614 15.7258H4.4355C4.54244 15.7258 4.645 15.6833 4.72062 15.6077C4.79624 15.532 4.83872 15.4295 4.83872 15.3225C4.83872 15.2156 4.79624 15.113 4.72062 15.0374C4.645 14.9618 4.54244 14.9193 4.4355 14.9193Z"/>
</mask>
<path d="M4.4355 14.9193H2.01614C1.9092 14.9193 1.80664 14.9618 1.73102 15.0374C1.6554 15.113 1.61292 15.2156 1.61292 15.3225C1.61292 15.4295 1.6554 15.532 1.73102 15.6077C1.80664 15.6833 1.9092 15.7258 2.01614 15.7258H4.4355C4.54244 15.7258 4.645 15.6833 4.72062 15.6077C4.79624 15.532 4.83872 15.4295 4.83872 15.3225C4.83872 15.2156 4.79624 15.113 4.72062 15.0374C4.645 14.9618 4.54244 14.9193 4.4355 14.9193Z" fill="#B6A57F"/>
<path d="M4.4355 13.9193H2.01614V15.9193H4.4355V13.9193ZM2.01614 13.9193C1.64398 13.9193 1.28707 14.0671 1.02391 14.3303L2.43812 15.7445C2.32621 15.8564 2.17441 15.9193 2.01614 15.9193V13.9193ZM1.02391 14.3303C0.760754 14.5935 0.612915 14.9504 0.612915 15.3225H2.61292C2.61292 15.4808 2.55004 15.6326 2.43812 15.7445L1.02391 14.3303ZM0.612915 15.3225C0.612915 15.6947 0.760754 16.0516 1.02391 16.3148L2.43812 14.9006C2.55004 15.0125 2.61292 15.1643 2.61292 15.3225H0.612915ZM1.02391 16.3148C1.28707 16.5779 1.64398 16.7258 2.01614 16.7258V14.7258C2.17441 14.7258 2.32621 14.7886 2.43812 14.9006L1.02391 16.3148ZM2.01614 16.7258H4.4355V14.7258H2.01614V16.7258ZM4.4355 16.7258C4.80765 16.7258 5.16457 16.5779 5.42773 16.3148L4.01351 14.9006C4.12543 14.7886 4.27722 14.7258 4.4355 14.7258V16.7258ZM5.42773 16.3148C5.69088 16.0516 5.83872 15.6947 5.83872 15.3225H3.83872C3.83872 15.1643 3.9016 15.0125 4.01351 14.9006L5.42773 16.3148ZM5.83872 15.3225C5.83872 14.9504 5.69088 14.5935 5.42773 14.3303L4.01351 15.7445C3.9016 15.6326 3.83872 15.4808 3.83872 15.3225H5.83872ZM5.42773 14.3303C5.16457 14.0671 4.80765 13.9193 4.4355 13.9193V15.9193C4.27722 15.9193 4.12543 15.8564 4.01351 15.7445L5.42773 14.3303Z" fill="#B6A57F" mask="url(#path-2-inside-2_7_86)"/>
<mask id="path-4-inside-3_7_86" fill="white">
<path d="M6.04839 14.9193H5.64517C5.53823 14.9193 5.43567 14.9618 5.36005 15.0374C5.28443 15.113 5.24194 15.2156 5.24194 15.3225C5.24194 15.4295 5.28443 15.532 5.36005 15.6077C5.43567 15.6833 5.53823 15.7258 5.64517 15.7258H6.04839C6.15534 15.7258 6.2579 15.6833 6.33352 15.6077C6.40914 15.532 6.45162 15.4295 6.45162 15.3225C6.45162 15.2156 6.40914 15.113 6.33352 15.0374C6.2579 14.9618 6.15534 14.9193 6.04839 14.9193Z"/>
</mask>
<path d="M6.04839 14.9193H5.64517C5.53823 14.9193 5.43567 14.9618 5.36005 15.0374C5.28443 15.113 5.24194 15.2156 5.24194 15.3225C5.24194 15.4295 5.28443 15.532 5.36005 15.6077C5.43567 15.6833 5.53823 15.7258 5.64517 15.7258H6.04839C6.15534 15.7258 6.2579 15.6833 6.33352 15.6077C6.40914 15.532 6.45162 15.4295 6.45162 15.3225C6.45162 15.2156 6.40914 15.113 6.33352 15.0374C6.2579 14.9618 6.15534 14.9193 6.04839 14.9193Z" fill="#B6A57F"/>
<path d="M6.04839 13.9193H5.64517V15.9193H6.04839V13.9193ZM5.64517 13.9193C5.27301 13.9193 4.9161 14.0671 4.65294 14.3303L6.06715 15.7445C5.95523 15.8564 5.80344 15.9193 5.64517 15.9193V13.9193ZM4.65294 14.3303C4.38978 14.5935 4.24194 14.9504 4.24194 15.3225H6.24194C6.24194 15.4808 6.17907 15.6326 6.06715 15.7445L4.65294 14.3303ZM4.24194 15.3225C4.24194 15.6947 4.38978 16.0516 4.65294 16.3148L6.06715 14.9006C6.17907 15.0125 6.24194 15.1643 6.24194 15.3225H4.24194ZM4.65294 16.3148C4.9161 16.5779 5.27301 16.7258 5.64517 16.7258V14.7258C5.80344 14.7258 5.95523 14.7886 6.06715 14.9006L4.65294 16.3148ZM5.64517 16.7258H6.04839V14.7258H5.64517V16.7258ZM6.04839 16.7258C6.42055 16.7258 6.77747 16.5779 7.04063 16.3148L5.62641 14.9006C5.73833 14.7886 5.89012 14.7258 6.04839 14.7258V16.7258ZM7.04063 16.3148C7.30378 16.0516 7.45162 15.6947 7.45162 15.3225H5.45162C5.45162 15.1643 5.51449 15.0125 5.62641 14.9006L7.04063 16.3148ZM7.45162 15.3225C7.45162 14.9504 7.30378 14.5935 7.04063 14.3303L5.62641 15.7445C5.51449 15.6326 5.45162 15.4808 5.45162 15.3225H7.45162ZM7.04063 14.3303C6.77747 14.0671 6.42055 13.9193 6.04839 13.9193V15.9193C5.89012 15.9193 5.73833 15.8564 5.62641 15.7445L7.04063 14.3303Z" fill="#B6A57F" mask="url(#path-4-inside-3_7_86)"/>
<mask id="path-6-inside-4_7_86" fill="white">
<path d="M10.0807 7.66125C9.97371 7.66125 9.87115 7.70374 9.79553 7.77936C9.71991 7.85498 9.67743 7.95754 9.67743 8.06448V12.5C9.67743 12.6069 9.71991 12.7095 9.79553 12.7851C9.87115 12.8607 9.97371 12.9032 10.0807 12.9032C10.1876 12.9032 10.2902 12.8607 10.3658 12.7851C10.4414 12.7095 10.4839 12.6069 10.4839 12.5V8.06448C10.4839 7.95754 10.4414 7.85498 10.3658 7.77936C10.2902 7.70374 10.1876 7.66125 10.0807 7.66125Z"/>
</mask>
<path d="M10.0807 7.66125C9.97371 7.66125 9.87115 7.70374 9.79553 7.77936C9.71991 7.85498 9.67743 7.95754 9.67743 8.06448V12.5C9.67743 12.6069 9.71991 12.7095 9.79553 12.7851C9.87115 12.8607 9.97371 12.9032 10.0807 12.9032C10.1876 12.9032 10.2902 12.8607 10.3658 12.7851C10.4414 12.7095 10.4839 12.6069 10.4839 12.5V8.06448C10.4839 7.95754 10.4414 7.85498 10.3658 7.77936C10.2902 7.70374 10.1876 7.66125 10.0807 7.66125Z" fill="#B6A57F"/>
<path d="M10.0807 6.66125C9.7085 6.66125 9.35158 6.80909 9.08842 7.07225L10.5026 8.48646C10.3907 8.59838 10.2389 8.66125 10.0807 8.66125V6.66125ZM9.08842 7.07225C8.82527 7.33541 8.67743 7.69232 8.67743 8.06448H10.6774C10.6774 8.22275 10.6146 8.37454 10.5026 8.48646L9.08842 7.07225ZM8.67743 8.06448V12.5H10.6774V8.06448H8.67743ZM8.67743 12.5C8.67743 12.8721 8.82527 13.229 9.08842 13.4922L10.5026 12.078C10.6146 12.1899 10.6774 12.3417 10.6774 12.5H8.67743ZM9.08842 13.4922C9.35158 13.7554 9.7085 13.9032 10.0807 13.9032V11.9032C10.2389 11.9032 10.3907 11.9661 10.5026 12.078L9.08842 13.4922ZM10.0807 13.9032C10.4528 13.9032 10.8097 13.7554 11.0729 13.4922L9.65867 12.078C9.77059 11.9661 9.92238 11.9032 10.0807 11.9032V13.9032ZM11.0729 13.4922C11.336 13.229 11.4839 12.8721 11.4839 12.5H9.48388C9.48388 12.3417 9.54675 12.1899 9.65867 12.078L11.0729 13.4922ZM11.4839 12.5V8.06448H9.48388V12.5H11.4839ZM11.4839 8.06448C11.4839 7.69232 11.336 7.33541 11.0729 7.07225L9.65867 8.48646C9.54675 8.37454 9.48388 8.22275 9.48388 8.06448H11.4839ZM11.0729 7.07225C10.8097 6.80909 10.4528 6.66125 10.0807 6.66125V8.66125C9.92238 8.66125 9.77059 8.59838 9.65867 8.48646L11.0729 7.07225Z" fill="#B6A57F" mask="url(#path-6-inside-4_7_86)"/>
<mask id="path-8-inside-5_7_86" fill="white">
<path d="M18.5484 10.8871C18.4414 10.8871 18.3389 10.9296 18.2632 11.0052C18.1876 11.0808 18.1451 11.1834 18.1451 11.2903V12.5C18.1451 12.6069 18.1876 12.7095 18.2632 12.7851C18.3389 12.8607 18.4414 12.9032 18.5484 12.9032C18.6553 12.9032 18.7579 12.8607 18.8335 12.7851C18.9091 12.7095 18.9516 12.6069 18.9516 12.5V11.2903C18.9516 11.1834 18.9091 11.0808 18.8335 11.0052C18.7579 10.9296 18.6553 10.8871 18.5484 10.8871Z"/>
</mask>
<path d="M18.5484 10.8871C18.4414 10.8871 18.3389 10.9296 18.2632 11.0052C18.1876 11.0808 18.1451 11.1834 18.1451 11.2903V12.5C18.1451 12.6069 18.1876 12.7095 18.2632 12.7851C18.3389 12.8607 18.4414 12.9032 18.5484 12.9032C18.6553 12.9032 18.7579 12.8607 18.8335 12.7851C18.9091 12.7095 18.9516 12.6069 18.9516 12.5V11.2903C18.9516 11.1834 18.9091 11.0808 18.8335 11.0052C18.7579 10.9296 18.6553 10.8871 18.5484 10.8871Z" fill="#B6A57F"/>
<path d="M18.5484 9.88708C18.1762 9.88708 17.8193 10.0349 17.5561 10.2981L18.9704 11.7123C18.8584 11.8242 18.7066 11.8871 18.5484 11.8871V9.88708ZM17.5561 10.2981C17.293 10.5612 17.1451 10.9182 17.1451 11.2903H19.1451C19.1451 11.4486 19.0823 11.6004 18.9704 11.7123L17.5561 10.2981ZM17.1451 11.2903V12.5H19.1451V11.2903H17.1451ZM17.1451 12.5C17.1451 12.8721 17.293 13.2291 17.5561 13.4922L18.9704 12.078C19.0823 12.1899 19.1451 12.3417 19.1451 12.5H17.1451ZM17.5561 13.4922C17.8193 13.7554 18.1762 13.9032 18.5484 13.9032V11.9032C18.7066 11.9032 18.8584 11.9661 18.9704 12.078L17.5561 13.4922ZM18.5484 13.9032C18.9205 13.9032 19.2774 13.7554 19.5406 13.4922L18.1264 12.078C18.2383 11.9661 18.3901 11.9032 18.5484 11.9032V13.9032ZM19.5406 13.4922C19.8038 13.2291 19.9516 12.8721 19.9516 12.5H17.9516C17.9516 12.3417 18.0145 12.1899 18.1264 12.078L19.5406 13.4922ZM19.9516 12.5V11.2903H17.9516V12.5H19.9516ZM19.9516 11.2903C19.9516 10.9182 19.8038 10.5612 19.5406 10.2981L18.1264 11.7123C18.0145 11.6004 17.9516 11.4486 17.9516 11.2903H19.9516ZM19.5406 10.2981C19.2774 10.0349 18.9205 9.88708 18.5484 9.88708V11.8871C18.3901 11.8871 18.2383 11.8242 18.1264 11.7123L19.5406 10.2981Z" fill="#B6A57F" mask="url(#path-8-inside-5_7_86)"/>
<mask id="path-10-inside-6_7_86" fill="white">
<path d="M2.01614 2.41937H5.24195C5.34889 2.41937 5.45145 2.37688 5.52707 2.30126C5.60269 2.22564 5.64517 2.12308 5.64517 2.01614C5.64517 1.9092 5.60269 1.80664 5.52707 1.73102C5.45145 1.6554 5.34889 1.61292 5.24195 1.61292H2.01614C1.9092 1.61292 1.80664 1.6554 1.73102 1.73102C1.6554 1.80664 1.61292 1.9092 1.61292 2.01614C1.61292 2.12308 1.6554 2.22564 1.73102 2.30126C1.80664 2.37688 1.9092 2.41937 2.01614 2.41937Z"/>
</mask>
<path d="M2.01614 2.41937H5.24195C5.34889 2.41937 5.45145 2.37688 5.52707 2.30126C5.60269 2.22564 5.64517 2.12308 5.64517 2.01614C5.64517 1.9092 5.60269 1.80664 5.52707 1.73102C5.45145 1.6554 5.34889 1.61292 5.24195 1.61292H2.01614C1.9092 1.61292 1.80664 1.6554 1.73102 1.73102C1.6554 1.80664 1.61292 1.9092 1.61292 2.01614C1.61292 2.12308 1.6554 2.22564 1.73102 2.30126C1.80664 2.37688 1.9092 2.41937 2.01614 2.41937Z" fill="#B6A57F"/>
<path d="M2.01614 3.41937H5.24195V1.41937H2.01614V3.41937ZM5.24195 3.41937C5.61411 3.41937 5.97102 3.27153 6.23418 3.00837L4.81996 1.59416C4.93188 1.48224 5.08367 1.41937 5.24195 1.41937V3.41937ZM6.23418 3.00837C6.49733 2.74522 6.64517 2.3883 6.64517 2.01614H4.64517C4.64517 1.85787 4.70805 1.70607 4.81996 1.59416L6.23418 3.00837ZM6.64517 2.01614C6.64517 1.64398 6.49733 1.28707 6.23418 1.02391L4.81996 2.43812C4.70805 2.32621 4.64517 2.17442 4.64517 2.01614H6.64517ZM6.23418 1.02391C5.97102 0.760755 5.61411 0.612915 5.24195 0.612915V2.61292C5.08367 2.61292 4.93188 2.55004 4.81996 2.43812L6.23418 1.02391ZM5.24195 0.612915H2.01614V2.61292H5.24195V0.612915ZM2.01614 0.612915C1.64398 0.612915 1.28707 0.760755 1.02391 1.02391L2.43812 2.43812C2.32621 2.55004 2.17442 2.61292 2.01614 2.61292V0.612915ZM1.02391 1.02391C0.760755 1.28707 0.612915 1.64398 0.612915 2.01614H2.61292C2.61292 2.17442 2.55004 2.32621 2.43812 2.43812L1.02391 1.02391ZM0.612915 2.01614C0.612915 2.3883 0.760755 2.74522 1.02391 3.00837L2.43812 1.59416C2.55004 1.70607 2.61292 1.85787 2.61292 2.01614H0.612915ZM1.02391 3.00837C1.28707 3.27153 1.64398 3.41937 2.01614 3.41937V1.41937C2.17442 1.41937 2.32621 1.48224 2.43812 1.59416L1.02391 3.00837Z" fill="#B6A57F" mask="url(#path-10-inside-6_7_86)"/>
<mask id="path-12-inside-7_7_86" fill="white">
<path d="M2.01614 3.62908H2.82259C2.92953 3.62908 3.0321 3.5866 3.10772 3.51098C3.18334 3.43536 3.22582 3.3328 3.22582 3.22586C3.22582 3.11892 3.18334 3.01635 3.10772 2.94073C3.0321 2.86511 2.92953 2.82263 2.82259 2.82263H2.01614C1.9092 2.82263 1.80664 2.86511 1.73102 2.94073C1.6554 3.01635 1.61292 3.11892 1.61292 3.22586C1.61292 3.3328 1.6554 3.43536 1.73102 3.51098C1.80664 3.5866 1.9092 3.62908 2.01614 3.62908Z"/>
</mask>
<path d="M2.01614 3.62908H2.82259C2.92953 3.62908 3.0321 3.5866 3.10772 3.51098C3.18334 3.43536 3.22582 3.3328 3.22582 3.22586C3.22582 3.11892 3.18334 3.01635 3.10772 2.94073C3.0321 2.86511 2.92953 2.82263 2.82259 2.82263H2.01614C1.9092 2.82263 1.80664 2.86511 1.73102 2.94073C1.6554 3.01635 1.61292 3.11892 1.61292 3.22586C1.61292 3.3328 1.6554 3.43536 1.73102 3.51098C1.80664 3.5866 1.9092 3.62908 2.01614 3.62908Z" fill="#B6A57F"/>
<path d="M2.01614 4.62908H2.82259V2.62908H2.01614V4.62908ZM2.82259 4.62908C3.19475 4.62908 3.55167 4.48124 3.81482 4.21809L2.40061 2.80387C2.51253 2.69196 2.66432 2.62908 2.82259 2.62908V4.62908ZM3.81482 4.21809C4.07798 3.95493 4.22582 3.59802 4.22582 3.22586H2.22582C2.22582 3.06758 2.28869 2.91579 2.40061 2.80387L3.81482 4.21809ZM4.22582 3.22586C4.22582 2.8537 4.07798 2.49678 3.81482 2.23363L2.40061 3.64784C2.28869 3.53592 2.22582 3.38413 2.22582 3.22586H4.22582ZM3.81482 2.23363C3.55167 1.97047 3.19475 1.82263 2.82259 1.82263V3.82263C2.66432 3.82263 2.51253 3.75976 2.40061 3.64784L3.81482 2.23363ZM2.82259 1.82263H2.01614V3.82263H2.82259V1.82263ZM2.01614 1.82263C1.64398 1.82263 1.28707 1.97047 1.02391 2.23363L2.43812 3.64784C2.32621 3.75976 2.17442 3.82263 2.01614 3.82263V1.82263ZM1.02391 2.23363C0.760755 2.49678 0.612915 2.8537 0.612915 3.22586H2.61292C2.61292 3.38413 2.55004 3.53592 2.43812 3.64784L1.02391 2.23363ZM0.612915 3.22586C0.612915 3.59802 0.760755 3.95493 1.02391 4.21809L2.43812 2.80387C2.55004 2.91579 2.61292 3.06758 2.61292 3.22586H0.612915ZM1.02391 4.21809C1.28707 4.48124 1.64398 4.62908 2.01614 4.62908V2.62908C2.17442 2.62908 2.32621 2.69196 2.43812 2.80387L1.02391 4.21809Z" fill="#B6A57F" mask="url(#path-12-inside-7_7_86)"/>
<mask id="path-14-inside-8_7_86" fill="white">
<path d="M21.3709 12.9033H22.9838C23.0908 12.9033 23.1933 12.8608 23.269 12.7852C23.3446 12.7095 23.3871 12.607 23.3871 12.5C23.3871 12.3931 23.3446 12.2905 23.269 12.2149C23.1933 12.1393 23.0908 12.0968 22.9838 12.0968H21.3709C21.264 12.0968 21.1614 12.1393 21.0858 12.2149C21.0102 12.2905 20.9677 12.3931 20.9677 12.5C20.9677 12.607 21.0102 12.7095 21.0858 12.7852C21.1614 12.8608 21.264 12.9033 21.3709 12.9033Z"/>
</mask>
<path d="M21.3709 12.9033H22.9838C23.0908 12.9033 23.1933 12.8608 23.269 12.7852C23.3446 12.7095 23.3871 12.607 23.3871 12.5C23.3871 12.3931 23.3446 12.2905 23.269 12.2149C23.1933 12.1393 23.0908 12.0968 22.9838 12.0968H21.3709C21.264 12.0968 21.1614 12.1393 21.0858 12.2149C21.0102 12.2905 20.9677 12.3931 20.9677 12.5C20.9677 12.607 21.0102 12.7095 21.0858 12.7852C21.1614 12.8608 21.264 12.9033 21.3709 12.9033Z" fill="#B6A57F"/>
<path d="M21.3709 13.9033H22.9838V11.9033H21.3709V13.9033ZM22.9838 13.9033C23.356 13.9033 23.7129 13.7554 23.9761 13.4923L22.5619 12.078C22.6738 11.9661 22.8256 11.9033 22.9838 11.9033V13.9033ZM23.9761 13.4923C24.2392 13.2291 24.3871 12.8722 24.3871 12.5H22.3871C22.3871 12.3418 22.4499 12.19 22.5619 12.078L23.9761 13.4923ZM24.3871 12.5C24.3871 12.1279 24.2392 11.771 23.9761 11.5078L22.5619 12.922C22.4499 12.8101 22.3871 12.6583 22.3871 12.5H24.3871ZM23.9761 11.5078C23.7129 11.2446 23.356 11.0968 22.9838 11.0968V13.0968C22.8256 13.0968 22.6738 13.0339 22.5619 12.922L23.9761 11.5078ZM22.9838 11.0968H21.3709V13.0968H22.9838V11.0968ZM21.3709 11.0968C20.9988 11.0968 20.6419 11.2446 20.3787 11.5078L21.7929 12.922C21.681 13.0339 21.5292 13.0968 21.3709 13.0968V11.0968ZM20.3787 11.5078C20.1155 11.771 19.9677 12.1279 19.9677 12.5H21.9677C21.9677 12.6583 21.9048 12.8101 21.7929 12.922L20.3787 11.5078ZM19.9677 12.5C19.9677 12.8722 20.1155 13.2291 20.3787 13.4923L21.7929 12.078C21.9048 12.19 21.9677 12.3418 21.9677 12.5H19.9677ZM20.3787 13.4923C20.6419 13.7554 20.9988 13.9033 21.3709 13.9033V11.9033C21.5292 11.9033 21.681 11.9661 21.7929 12.078L20.3787 13.4923Z" fill="#B6A57F" mask="url(#path-14-inside-8_7_86)"/>
<mask id="path-16-inside-9_7_86" fill="white">
<path d="M22.5807 11.6935H22.9839C23.0908 11.6935 23.1934 11.6511 23.269 11.5754C23.3446 11.4998 23.3871 11.3973 23.3871 11.2903C23.3871 11.1834 23.3446 11.0808 23.269 11.0052C23.1934 10.9296 23.0908 10.8871 22.9839 10.8871H22.5807C22.4737 10.8871 22.3712 10.9296 22.2955 11.0052C22.2199 11.0808 22.1774 11.1834 22.1774 11.2903C22.1774 11.3973 22.2199 11.4998 22.2955 11.5754C22.3712 11.6511 22.4737 11.6935 22.5807 11.6935Z"/>
</mask>
<path d="M22.5807 11.6935H22.9839C23.0908 11.6935 23.1934 11.6511 23.269 11.5754C23.3446 11.4998 23.3871 11.3973 23.3871 11.2903C23.3871 11.1834 23.3446 11.0808 23.269 11.0052C23.1934 10.9296 23.0908 10.8871 22.9839 10.8871H22.5807C22.4737 10.8871 22.3712 10.9296 22.2955 11.0052C22.2199 11.0808 22.1774 11.1834 22.1774 11.2903C22.1774 11.3973 22.2199 11.4998 22.2955 11.5754C22.3712 11.6511 22.4737 11.6935 22.5807 11.6935Z" fill="#B6A57F"/>
<path d="M22.5807 12.6935H22.9839V10.6935H22.5807V12.6935ZM22.9839 12.6935C23.356 12.6935 23.713 12.5457 23.9761 12.2825L22.5619 10.8683C22.6738 10.7564 22.8256 10.6935 22.9839 10.6935V12.6935ZM23.9761 12.2825C24.2393 12.0194 24.3871 11.6625 24.3871 11.2903H22.3871C22.3871 11.132 22.45 10.9802 22.5619 10.8683L23.9761 12.2825ZM24.3871 11.2903C24.3871 10.9182 24.2393 10.5612 23.9761 10.2981L22.5619 11.7123C22.45 11.6004 22.3871 11.4486 22.3871 11.2903H24.3871ZM23.9761 10.2981C23.713 10.0349 23.356 9.88708 22.9839 9.88708V11.8871C22.8256 11.8871 22.6738 11.8242 22.5619 11.7123L23.9761 10.2981ZM22.9839 9.88708H22.5807V11.8871H22.9839V9.88708ZM22.5807 9.88708C22.2085 9.88708 21.8516 10.0349 21.5884 10.2981L23.0026 11.7123C22.8907 11.8242 22.7389 11.8871 22.5807 11.8871V9.88708ZM21.5884 10.2981C21.3253 10.5612 21.1774 10.9182 21.1774 11.2903H23.1774C23.1774 11.4486 23.1146 11.6004 23.0026 11.7123L21.5884 10.2981ZM21.1774 11.2903C21.1774 11.6625 21.3253 12.0194 21.5884 12.2825L23.0026 10.8683C23.1146 10.9802 23.1774 11.132 23.1774 11.2903H21.1774ZM21.5884 12.2825C21.8516 12.5457 22.2085 12.6935 22.5807 12.6935V10.6935C22.7389 10.6935 22.8907 10.7564 23.0026 10.8683L21.5884 12.2825Z" fill="#B6A57F" mask="url(#path-16-inside-9_7_86)"/>
</svg>
